Newsreader-LightItalic.ufo
<glyph name="parenleft" format="2">
  <advance width="507.82666666666665"/>
  <unicode hex="0028"/>
  <outline>
    <contour>
      <point x="741.8266666666667" y="1391.2666666666667" type="curve"/>
      <point x="714.72" y="1419.0" type="line"/>
      <point x="183.74666666666667" y="910.4"/>
      <point x="90.50666666666666" y="591.8266666666667"/>
      <point x="90.50666666666666" y="267.74666666666667" type="curve" smooth="yes"/>
      <point x="90.50666666666666" y="118.38666666666667"/>
      <point x="123.0" y="-53.986666666666665"/>
      <point x="198.6" y="-275.0" type="curve"/>
      <point x="237.2" y="-261.76" type="line"/>
      <point x="194.81333333333333" y="-110.34666666666666"/>
      <point x="173.8" y="30.573333333333334"/>
      <point x="173.8" y="165.0" type="curve" smooth="yes"/>
      <point x="173.8" y="598.2533333333333"/>
      <point x="340.5733333333333" y="971.1866666666667"/>
    </contour>
  </outline>
</glyph>
<glyph name="asterisk" format="2">
  <advance width="786.8266666666667"/>
  <unicode hex="002A"/>
  <outline>
    <contour>
      <point x="711.6266666666667" y="766.5066666666667" type="line"/>
      <point x="634.8666666666667" y="1007.2266666666667" type="line"/>
      <point x="885.72" y="1042.0666666666666" type="line"/>
      <point x="882.3466666666667" y="1084.0266666666666" type="line"/>
      <point x="629.0" y="1085.76" type="line"/>
      <point x="673.4" y="1335.2266666666667" type="line"/>
      <point x="632.8133333333333" y="1345.72" type="line"/>
      <point x="552.5866666666667" y="1105.24" type="line"/>
      <point x="329.62666666666667" y="1224.2533333333333" type="line"/>
      <point x="306.7733333333333" y="1188.7866666666666" type="line"/>
      <point x="510.76" y="1038.6933333333334" type="line"/>
      <point x="328.50666666666666" y="863.36" type="line"/>
      <point x="355.1066666666667" y="830.64" type="line"/>
      <point x="561.8266666666667" y="977.3866666666667" type="line"/>
      <point x="671.7866666666666" y="749.7733333333333" type="line"/>
    </contour>
  </outline>
</glyph>
<glyph name="one" format="2">
  <advance width="1100.0"/>
  <unicode hex="0031"/>
  <outline>
    <contour>
      <point x="468.12" y="66.68" type="line"/>
      <point x="192.8" y="27.973333333333333" type="line"/>
      <point x="184.30666666666667" y="0.0" type="line"/>
      <point x="789.5866666666667" y="0.0" type="line"/>
      <point x="799.7066666666667" y="27.973333333333333" type="line"/>
      <point x="565.3733333333333" y="65.56" type="line"/>
      <point x="961.2666666666667" y="1360.0" type="line"/>
      <point x="942.5333333333333" y="1360.0" type="line"/>
      <point x="405.74666666666667" y="1131.36" type="line"/>
      <point x="413.9866666666667" y="1101.76" type="line"/>
      <point x="860.2666666666667" y="1230.3866666666668" type="line"/>
      <point x="835.28" y="1267.8" type="line"/>
    </contour>
  </outline>
</glyph>
<glyph name="Y" format="2">
  <advance width="1260.36"/>
  <unicode hex="0059"/>
  <anchor x="891.76" y="1340.0" name="UCtop"/>
  <anchor x="526.4933333333333" y="0.0" name="bottom"/>
  <outline>
    <contour>
      <point x="1266.7866666666666" y="1279.04" type="line"/>
      <point x="695.5866666666667" y="611.5866666666667" type="line"/>
      <point x="732.1866666666666" y="611.4666666666667" type="line"/>
      <point x="510.92" y="1277.1733333333334" type="line"/>
      <point x="682.0533333333333" y="1312.0266666666666" type="line"/>
      <point x="690.2933333333333" y="1340.0" type="line"/>
      <point x="266.50666666666666" y="1340.0" type="line"/>
      <point x="258.26666666666665" y="1312.0266666666666" type="line"/>
      <point x="402.93333333333334" y="1276.4266666666667" type="line"/>
      <point x="637.3066666666666" y="583.5066666666667" type="line"/>
      <point x="478.53333333333336" y="63.44" type="line"/>
      <point x="312.7733333333333" y="27.973333333333333" type="line"/>
      <point x="304.53333333333336" y="0.0" type="line"/>
      <point x="723.32" y="0.0" type="line"/>
      <point x="731.56" y="27.973333333333333" type="line"/>
      <point x="580.0266666666666" y="62.32" type="line"/>
      <point x="739.92" y="586.12" type="line"/>
      <point x="1338.8266666666666" y="1277.92" type="line"/>
      <point x="1505.48" y="1312.0266666666666" type="line"/>
      <point x="1514.3466666666666" y="1340.0" type="line"/>
      <point x="1124.64" y="1340.0" type="line"/>
      <point x="1115.7733333333333" y="1312.0266666666666" type="line"/>
    </contour>
  </outline>
</glyph>
<glyph name="bracketleft" format="2">
  <advance width="550.08"/>
  <unicode hex="005B"/>
  <outline>
    <contour>
      <point x="-14.986666666666666" y="-256.12" type="line"/>
      <point x="303.68" y="-256.12" type="line"/>
      <point x="319.66666666666663" y="-204.92000000000002" type="line"/>
      <point x="90.26666666666667" y="-204.92000000000002" type="line"/>
      <point x="564.92" y="1347.8" type="line"/>
      <point x="794.3199999999999" y="1347.8" type="line"/>
      <point x="810.0533333333333" y="1399.0" type="line"/>
      <point x="490.38666666666666" y="1399.0" type="line"/>
    </contour>
  </outline>
</glyph>
<glyph name="backslash" format="2">
  <advance width="720.08"/>
  <unicode hex="005C"/>
  <outline>
    <contour>
      <point x="532.9466666666667" y="0.0" type="line"/>
      <point x="404.06666666666666" y="1340.0" type="line"/>
      <point x="336.76" y="1340.0" type="line"/>
      <point x="466.0133333333333" y="0.0" type="line"/>
    </contour>
  </outline>
</glyph>
<glyph name="p" format="2">
  <advance width="954.1066666666667"/>
  <unicode hex="0070"/>
  <anchor x="597.88" y="852.0" name="top"/>
  <anchor x="31.106666666666666" y="-510.0" name="bottom"/>
  <outline>
    <contour>
      <point x="272.6533333333333" y="233.36" type="curve" smooth="yes"/>
      <point x="299.5466666666667" y="338.68" type="line" smooth="yes"/>
      <point x="354.5733333333333" y="553.9066666666666"/>
      <point x="517.48" y="785.36"/>
      <point x="673.68" y="785.36" type="curve" smooth="yes"/>
      <point x="758.5733333333334" y="785.36"/>
      <point x="799.72" y="724.2"/>
      <point x="799.72" y="601.0133333333333" type="curve" smooth="yes"/>
      <point x="799.72" y="308.2"/>
      <point x="576.0266666666666" y="23.69333333333333"/>
      <point x="402.84" y="23.69333333333333" type="curve" smooth="yes"/>
      <point x="310.84" y="23.69333333333333"/>
      <point x="262.8" y="89.84"/>
      <point x="262.8" y="165.10666666666665" type="curve" smooth="yes"/>
      <point x="262.8" y="179.97333333333333"/>
      <point x="264.17333333333335" y="201.06666666666666"/>
    </contour>
    <contour>
      <point x="181.38666666666666" y="92.42666666666668" type="line"/>
      <point x="206.46666666666667" y="23.293333333333333"/>
      <point x="291.5466666666667" y="-20.0"/>
      <point x="393.2266666666667" y="-20.0" type="curve" smooth="yes"/>
      <point x="657.4133333333333" y="-20.0"/>
      <point x="906.7333333333333" y="301.46666666666664"/>
      <point x="906.7333333333333" y="646.76" type="curve" smooth="yes"/>
      <point x="906.7333333333333" y="779.92"/>
      <point x="843.3466666666667" y="872.0"/>
      <point x="713.88" y="872.0" type="curve" smooth="yes"/>
      <point x="601.8666666666667" y="872.0"/>
      <point x="450.18666666666667" y="766.4933333333333"/>
      <point x="319.41333333333336" y="486.88" type="curve"/>
      <point x="330.17333333333335" y="465.02666666666664" type="line"/>
      <point x="434.2" y="855.2533333333333" type="line"/>
      <point x="410.48" y="863.12"/>
      <point x="375.36" y="869.8666666666667"/>
      <point x="341.8666666666667" y="869.8666666666667" type="curve" smooth="yes"/>
      <point x="238.12" y="869.8666666666667"/>
      <point x="145.65333333333334" y="814.64"/>
      <point x="56.50666666666667" y="617.68" type="curve"/>
      <point x="83.73333333333333" y="605.1866666666667" type="line"/>
      <point x="154.36" y="729.8"/>
      <point x="224.37333333333333" y="786.7333333333333"/>
      <point x="301.1333333333333" y="786.7333333333333" type="curve" smooth="yes"/>
      <point x="315.6666666666667" y="786.7333333333333"/>
      <point x="323.3066666666667" y="785.48"/>
      <point x="328.44" y="784.2266666666667" type="curve"/>
      <point x="-1.3333333333333321" y="-447.18666666666667" type="line"/>
      <point x="-149.07999999999998" y="-481.7733333333333" type="line"/>
      <point x="-158.69333333333333" y="-510.0" type="line"/>
      <point x="255.07999999999998" y="-510.0" type="line"/>
      <point x="264.6933333333333" y="-481.7733333333333" type="line"/>
      <point x="90.30666666666667" y="-447.18666666666667" type="line"/>
      <point x="234.82666666666665" y="92.42666666666668" type="line"/>
    </contour>
  </outline>
</glyph>
<glyph name="w" format="2">
  <advance width="1172.92"/>
  <unicode hex="0077"/>
  <anchor x="728.68" y="852.0" name="top"/>
  <anchor x="521.2133333333334" y="0.0" name="bottom"/>
  <outline>
    <contour>
      <point x="709.3333333333334" y="852.0" type="line"/>
      <point x="599.3466666666667" y="461.53333333333336" type="line" smooth="yes"/>
      <point x="534.9466666666667" y="231.18666666666667"/>
      <point x="402.7733333333333" y="56.54666666666667"/>
      <point x="288.74666666666667" y="56.54666666666667" type="curve" smooth="yes"/>
      <point x="243.25333333333333" y="56.54666666666667"/>
      <point x="216.50666666666666" y="82.42666666666666"/>
      <point x="216.50666666666666" y="134.18666666666667" type="curve" smooth="yes"/>
      <point x="216.50666666666666" y="157.2"/>
      <point x="221.76" y="186.09333333333333"/>
      <point x="233.51999999999998" y="220.49333333333334" type="curve" smooth="yes"/>
      <point x="450.6533333333333" y="854.5066666666667" type="line"/>
      <point x="428.06666666666666" y="862.7466666666667"/>
      <point x="389.06666666666666" y="869.12"/>
      <point x="355.3333333333333" y="869.12" type="curve" smooth="yes"/>
      <point x="248.6" y="869.12"/>
      <point x="152.77333333333334" y="814.2666666666667"/>
      <point x="62.50666666666667" y="617.68" type="curve"/>
      <point x="89.73333333333333" y="605.1866666666667" type="line"/>
      <point x="160.73333333333332" y="729.8"/>
      <point x="230.74666666666667" y="786.7333333333333"/>
      <point x="307.1333333333333" y="786.7333333333333" type="curve" smooth="yes"/>
      <point x="322.7866666666667" y="786.7333333333333"/>
      <point x="331.5466666666667" y="785.48"/>
      <point x="337.8" y="784.2266666666667" type="curve"/>
      <point x="149.76" y="237.61333333333334" type="line" smooth="yes"/>
      <point x="133.25333333333333" y="189.34666666666666"/>
      <point x="125.62666666666667" y="148.21333333333334"/>
      <point x="125.62666666666667" y="114.58666666666667" type="curve" smooth="yes"/>
      <point x="125.62666666666667" y="24.226666666666667"/>
      <point x="177.98666666666668" y="-17.493333333333332"/>
      <point x="249.69333333333333" y="-17.493333333333332" type="curve" smooth="yes"/>
      <point x="354.94666666666666" y="-17.493333333333332"/>
      <point x="495.0933333333333" y="79.28"/>
      <point x="594.6133333333333" y="352.02666666666664" type="curve"/>
      <point x="576.4933333333333" y="352.02666666666664" type="line"/>
      <point x="542.9466666666667" y="235.0" type="line" smooth="yes"/>
      <point x="529.32" y="187.0"/>
      <point x="522.6933333333334" y="146.0"/>
      <point x="522.6933333333334" y="113.0" type="curve" smooth="yes"/>
      <point x="522.6933333333334" y="20.76"/>
      <point x="571.8133333333333" y="-17.493333333333332"/>
      <point x="660.3066666666666" y="-17.493333333333332" type="curve" smooth="yes"/>
      <point x="884.6666666666666" y="-17.493333333333332"/>
      <point x="1117.2533333333333" y="379.05333333333334"/>
      <point x="1117.2533333333333" y="716.5866666666667" type="curve" smooth="yes"/>
      <point x="1117.2533333333333" y="825.1333333333333"/>
      <point x="1088.9066666666668" y="872.0"/>
      <point x="1032.5733333333333" y="872.0" type="curve" smooth="yes"/>
      <point x="993.36" y="872.0"/>
      <point x="954.28" y="845.2666666666667"/>
      <point x="954.28" y="796.9466666666667" type="curve" smooth="yes"/>
      <point x="954.28" y="767.32"/>
      <point x="1043.6133333333332" y="719.2533333333333"/>
      <point x="1043.6133333333332" y="612.3333333333334" type="curve" smooth="yes"/>
      <point x="1043.6133333333332" y="399.41333333333336"/>
      <point x="878.16" y="56.54666666666667"/>
      <point x="683.7333333333333" y="56.54666666666667" type="curve" smooth="yes"/>
      <point x="628.84" y="56.54666666666667"/>
      <point x="602.84" y="78.93333333333334"/>
      <point x="602.84" y="130.06666666666666" type="curve" smooth="yes"/>
      <point x="602.84" y="154.07999999999998"/>
      <point x="608.0933333333334" y="183.97333333333333"/>
      <point x="618.6" y="220.49333333333334" type="curve" smooth="yes"/>
      <point x="797.3466666666667" y="852.0" type="line"/>
    </contour>
  </outline>
</glyph>
<glyph name="uni00B2" format="2">
  <advance width="647.0666666666667"/>
  <unicode hex="00B2"/>
  <outline>
    <contour>
      <point x="533.5866666666667" y="638.9066666666666" type="line"/>
      <point x="608.6533333333333" y="674.0" type="line"/>
      <point x="248.36" y="674.0" type="line"/>
      <point x="230.33333333333331" y="633.1466666666666" type="line"/>
      <point x="475.62666666666667" y="839.5466666666666" type="line" smooth="yes"/>
      <point x="694.2" y="1022.3866666666667"/>
      <point x="733.08" y="1093.0133333333333"/>
      <point x="733.08" y="1190.0133333333333" type="curve" smooth="yes"/>
      <point x="733.08" y="1288.2533333333333"/>
      <point x="658.8533333333334" y="1354.0"/>
      <point x="549.1066666666667" y="1354.0" type="curve" smooth="yes"/>
      <point x="409.48" y="1354.0"/>
      <point x="318.76" y="1267.7466666666667"/>
      <point x="274.16" y="1101.2533333333333" type="curve"/>
      <point x="303.64" y="1094.76" type="line"/>
      <point x="346.14666666666665" y="1226.7066666666667"/>
      <point x="411.14666666666665" y="1275.9866666666667"/>
      <point x="510.3066666666667" y="1275.9866666666667" type="curve" smooth="yes"/>
      <point x="590.4533333333334" y="1275.9866666666667"/>
      <point x="635.96" y="1228.8533333333332"/>
      <point x="635.96" y="1152.3333333333333" type="curve" smooth="yes"/>
      <point x="635.96" y="1072.8133333333333"/>
      <point x="593.6933333333334" y="998.3066666666666"/>
      <point x="428.9066666666667" y="852.0266666666666" type="curve" smooth="yes"/>
      <point x="148.6" y="603.36" type="line"/>
      <point x="145.48" y="592.0" type="line"/>
      <point x="544.0" y="592.0" type="line"/>
      <point x="584.8266666666667" y="576.8933333333333" type="line"/>
      <point x="596.32" y="576.8933333333333" type="line"/>
      <point x="707.16" y="805.6533333333333" type="line"/>
      <point x="685.92" y="805.6533333333333" type="line"/>
    </contour>
  </outline>
</glyph>
<glyph name="uni00B9" format="2">
  <advance width="476.36"/>
  <unicode hex="00B9"/>
  <outline>
    <contour>
      <point x="295.6666666666667" y="642.9733333333334" type="line"/>
      <point x="164.0" y="616.7333333333333" type="line"/>
      <point x="156.25333333333333" y="592.0" type="line"/>
      <point x="483.62666666666667" y="592.0" type="line"/>
      <point x="491.74666666666667" y="616.7333333333333" type="line"/>
      <point x="383.82666666666665" y="642.9733333333334" type="line"/>
      <point x="598.96" y="1345.0" type="line"/>
      <point x="569.7733333333333" y="1345.0" type="line"/>
      <point x="273.37333333333333" y="1201.6133333333332" type="line"/>
      <point x="277.38666666666666" y="1173.64" type="line"/>
      <point x="503.93333333333334" y="1245.1866666666667" type="line"/>
      <point x="488.04" y="1271.4666666666667" type="line"/>
    </contour>
  </outline>
</glyph>
<glyph name="ordmasculine" format="2">
  <advance width="822.48"/>
  <unicode hex="00BA"/>
  <outline>
    <contour>
      <point x="153.38666666666666" y="477.16" type="line"/>
      <point x="713.3333333333334" y="477.16" type="line"/>
      <point x="732.8133333333333" y="541.0933333333334" type="line"/>
      <point x="173.24" y="541.0933333333334" type="line"/>
    </contour>
    <contour>
      <point x="687.4133333333333" y="1360.0" type="curve" smooth="yes"/>
      <point x="465.14666666666665" y="1360.0"/>
      <point x="300.14666666666665" y="1127.2133333333334"/>
      <point x="300.14666666666665" y="888.4666666666667" type="curve" smooth="yes"/>
      <point x="300.14666666666665" y="754.36"/>
      <point x="367.88" y="679.0"/>
      <point x="495.2266666666667" y="679.0" type="curve" smooth="yes"/>
      <point x="717.4933333333333" y="679.0"/>
      <point x="882.4933333333333" y="911.7866666666666"/>
      <point x="882.4933333333333" y="1150.5333333333333" type="curve" smooth="yes"/>
      <point x="882.4933333333333" y="1284.64"/>
      <point x="814.76" y="1360.0"/>
    </contour>
    <contour>
      <point x="498.2266666666667" y="720.6933333333334" type="curve" smooth="yes"/>
      <point x="423.44" y="720.6933333333334"/>
      <point x="390.41333333333336" y="765.96"/>
      <point x="390.41333333333336" y="873.76" type="curve" smooth="yes"/>
      <point x="390.41333333333336" y="1071.3866666666668"/>
      <point x="517.3333333333334" y="1318.3066666666666"/>
      <point x="684.4133333333333" y="1318.3066666666666" type="curve" smooth="yes"/>
      <point x="759.2" y="1318.3066666666666"/>
      <point x="792.2266666666667" y="1273.04"/>
      <point x="792.2266666666667" y="1165.24" type="curve" smooth="yes"/>
      <point x="792.2266666666667" y="967.6133333333333"/>
      <point x="665.3066666666666" y="720.6933333333334"/>
    </contour>
  </outline>
</glyph>
<glyph name="questiondown" format="2">
  <advance width="839.76"/>
  <unicode hex="00BF"/>
  <outline>
    <contour>
      <point x="597.5866666666667" y="674.3733333333333" type="curve" smooth="yes"/>
      <point x="661.6666666666666" y="674.3733333333333"/>
      <point x="708.3866666666667" y="725.84"/>
      <point x="708.3866666666667" y="787.3066666666666" type="curve" smooth="yes"/>
      <point x="708.3866666666667" y="830.7733333333333"/>
      <point x="677.92" y="863.4933333333333"/>
      <point x="630.2133333333334" y="863.4933333333333" type="curve" smooth="yes"/>
      <point x="566.1333333333333" y="863.4933333333333"/>
      <point x="519.4133333333333" y="812.0266666666666"/>
      <point x="519.4133333333333" y="750.56" type="curve" smooth="yes"/>
      <point x="519.4133333333333" y="707.0933333333334"/>
      <point x="549.88" y="674.3733333333333"/>
    </contour>
    <contour>
      <point x="357.94666666666666" y="-511.1333333333333" type="curve" smooth="yes"/>
      <point x="505.0133333333333" y="-511.1333333333333"/>
      <point x="540.48" y="-473.16"/>
      <point x="540.48" y="-426.82666666666665" type="curve" smooth="yes"/>
      <point x="540.48" y="-396.85333333333335"/>
      <point x="519.7466666666667" y="-374.49333333333334"/>
      <point x="480.38666666666666" y="-374.49333333333334" type="curve" smooth="yes"/>
      <point x="418.6666666666667" y="-374.49333333333334"/>
      <point x="389.53333333333336" y="-435.96"/>
      <point x="263.96" y="-435.96" type="curve" smooth="yes"/>
      <point x="143.81333333333333" y="-435.96"/>
      <point x="26.826666666666664" y="-314.05333333333334"/>
      <point x="26.826666666666664" y="-149.96" type="curve" smooth="yes"/>
      <point x="26.826666666666664" y="38.14666666666667"/>
      <point x="137.66666666666666" y="144.70666666666668"/>
      <point x="478.24" y="117.42666666666668" type="curve"/>
      <point x="546.8133333333334" y="452.8666666666667" type="line"/>
      <point x="515.2133333333334" y="452.8666666666667" type="line"/>
      <point x="405.2" y="132.42666666666668" type="line"/>
      <point x="473.50666666666666" y="207.82666666666665" type="line"/>
      <point x="83.98666666666666" y="235.36"/>
      <point x="-34.373333333333335" y="90.36"/>
      <point x="-34.373333333333335" y="-124.73333333333333" type="curve" smooth="yes"/>
      <point x="-34.373333333333335" y="-342.37333333333333"/>
      <point x="147.8" y="-511.1333333333333"/>
    </contour>
  </outline>
</glyph>
<glyph name="Thorn" format="2">
  <advance width="1118.12"/>
  <unicode hex="00DE"/>
  <outline>
    <contour>
      <point x="534.6266666666667" y="378.68" type="curve" smooth="yes"/>
      <point x="250.38666666666666" y="378.68" type="line"/>
      <point x="235.64" y="319.50666666666666" type="line"/>
      <point x="554.64" y="319.50666666666666" type="line" smooth="yes"/>
      <point x="930.68" y="319.50666666666666"/>
      <point x="1125.6133333333332" y="526.9333333333333"/>
      <point x="1125.6133333333332" y="778.2533333333333" type="curve" smooth="yes"/>
      <point x="1125.6133333333332" y="942.6266666666667"/>
      <point x="1016.64" y="1065.6133333333332"/>
      <point x="733.4133333333333" y="1065.6133333333332" type="curve" smooth="yes"/>
      <point x="465.1333333333333" y="1065.6133333333332" type="line"/>
      <point x="440.68" y="1006.44" type="line"/>
      <point x="686.3733333333333" y="1006.44" type="line" smooth="yes"/>
      <point x="929.4933333333333" y="1006.44"/>
      <point x="1019.76" y="919.1733333333333"/>
      <point x="1019.76" y="770.5466666666666" type="curve" smooth="yes"/>
      <point x="1019.76" y="543.4133333333333"/>
      <point x="867.52" y="378.68"/>
    </contour>
    <contour>
      <point x="498.76" y="1277.68" type="line"/>
      <point x="128.09333333333333" y="63.44" type="line"/>
      <point x="-37.66666666666667" y="27.973333333333333" type="line"/>
      <point x="-45.906666666666666" y="0.0" type="line"/>
      <point x="372.88" y="0.0" type="line"/>
      <point x="381.12" y="27.973333333333333" type="line"/>
      <point x="229.58666666666667" y="62.32" type="line"/>
      <point x="600.2533333333333" y="1276.56" type="line"/>
      <point x="766.0133333333333" y="1312.0266666666666" type="line"/>
      <point x="774.2533333333333" y="1340.0" type="line"/>
      <point x="355.46666666666664" y="1340.0" type="line"/>
      <point x="347.2266666666667" y="1312.0266666666666" type="line"/>
    </contour>
  </outline>
</glyph>
<glyph name="uni0162" format="2">
  <advance width="1202.1866666666667"/>
  <unicode hex="0162"/>
  <outline>
    <contour>
      <point x="1335.96" y="1278.5866666666666" type="line"/>
      <point x="1278.2666666666667" y="1291.9466666666667" type="line"/>
      <point x="1296.4666666666667" y="982.3866666666667" type="line"/>
      <point x="1326.5733333333333" y="982.3866666666667" type="line"/>
      <point x="1411.5333333333333" y="1405.4933333333333" type="line"/>
      <point x="1398.92" y="1405.4933333333333" type="line"/>
      <point x="1278.64" y="1327.76" type="line"/>
      <point x="1332.9333333333334" y="1340.0" type="line"/>
      <point x="419.0" y="1340.0" type="line"/>
      <point x="468.70666666666665" y="1327.76" type="line"/>
      <point x="391.76" y="1405.4933333333333" type="line"/>
      <point x="379.14666666666665" y="1405.4933333333333" type="line"/>
      <point x="221.62666666666667" y="991.1066666666667" type="line"/>
      <point x="248.6" y="977.12" type="line"/>
      <point x="462.70666666666665" y="1292.6933333333334" type="line"/>
      <point x="376.7733333333333" y="1278.5866666666666" type="line"/>
    </contour>
    <contour>
      <point x="816.0533333333333" y="1306.5733333333333" type="line"/>
      <point x="436.50666666666666" y="63.44" type="line"/>
      <point x="270.74666666666667" y="27.973333333333333" type="line"/>
      <point x="262.50666666666666" y="0.0" type="line"/>
      <point x="681.2933333333333" y="0.0" type="line"/>
      <point x="689.5333333333333" y="27.973333333333333" type="line"/>
      <point x="538.0" y="62.32" type="line"/>
      <point x="917.92" y="1306.5733333333333" type="line"/>
    </contour>
    <contour>
      <point x="251.77333333333334" y="-530.0" type="curve"/>
      <point x="404.50666666666666" y="-530.0"/>
      <point x="521.84" y="-431.28"/>
      <point x="521.84" y="-303.56" type="curve" smooth="yes"/>
      <point x="521.84" y="-240.57333333333332"/>
      <point x="475.32" y="-178.57333333333332"/>
      <point x="343.08" y="-144.8" type="curve"/>
      <point x="335.4" y="-190.93333333333334" type="line"/>
      <point x="525.9733333333334" y="18.666666666666664" type="line"/>
      <point x="472.4" y="18.666666666666664" type="line"/>
      <point x="265.52" y="-210.37333333333333" type="line"/>
      <point x="262.6533333333333" y="-219.6" type="line"/>
      <point x="396.4" y="-248.88"/>
      <point x="446.28" y="-292.4"/>
      <point x="446.28" y="-348.7733333333333" type="curve" smooth="yes"/>
      <point x="446.28" y="-424.41333333333336"/>
      <point x="388.76" y="-478.4266666666667"/>
      <point x="299.97333333333336" y="-478.4266666666667" type="curve" smooth="yes"/>
      <point x="229.95999999999998" y="-478.4266666666667"/>
      <point x="223.94666666666666" y="-416.05333333333334"/>
      <point x="178.21333333333334" y="-416.05333333333334" type="curve" smooth="yes"/>
      <point x="151.37333333333333" y="-416.05333333333334"/>
      <point x="130.88" y="-437.7866666666667"/>
      <point x="130.88" y="-464.7733333333333" type="curve" smooth="yes"/>
      <point x="130.88" y="-498.8933333333333"/>
      <point x="164.25333333333333" y="-530.0"/>
    </contour>
  </outline>
</glyph>
<glyph name="uni0163" format="2">
  <advance width="563.5333333333333"/>
  <unicode hex="0163"/>
  <outline>
    <contour>
      <point x="136.90666666666667" y="793.9333333333333" type="line"/>
      <point x="583.7866666666666" y="793.9333333333333" type="line"/>
      <point x="595.4" y="852.0" type="line"/>
      <point x="151.77333333333334" y="852.0" type="line"/>
    </contour>
    <contour>
      <point x="226.90666666666667" y="222.90666666666667" type="curve" smooth="yes"/>
      <point x="453.64" y="1026.0" type="line"/>
      <point x="362.50666666666666" y="1026.0" type="line"/>
      <point x="136.24" y="215.94666666666666" type="line" smooth="yes"/>
      <point x="119.86666666666666" y="157.82666666666665"/>
      <point x="112.24" y="112.70666666666666"/>
      <point x="112.24" y="78.58666666666667" type="curve" smooth="yes"/>
      <point x="112.24" y="7.866666666666666"/>
      <point x="143.97333333333333" y="-19.253333333333334"/>
      <point x="197.84" y="-19.253333333333334" type="curve" smooth="yes"/>
      <point x="277.6666666666667" y="-19.253333333333334"/>
      <point x="391.78666666666663" y="75.92"/>
      <point x="507.78666666666663" y="262.06666666666666" type="curve"/>
      <point x="477.18666666666667" y="281.8" type="line"/>
      <point x="389.6933333333333" y="150.51999999999998"/>
      <point x="287.56" y="65.25333333333333"/>
      <point x="235.90666666666667" y="65.25333333333333" type="curve" smooth="yes"/>
      <point x="215.64" y="65.25333333333333"/>
      <point x="204.50666666666666" y="76.50666666666666"/>
      <point x="204.50666666666666" y="107.28" type="curve" smooth="yes"/>
      <point x="204.50666666666666" y="131.42666666666668"/>
      <point x="211.64" y="168.46666666666667"/>
    </contour>
    <contour>
      <point x="26.866666666666667" y="-530.0" type="curve"/>
      <point x="179.6" y="-530.0"/>
      <point x="296.93333333333334" y="-431.28"/>
      <point x="296.93333333333334" y="-303.56" type="curve" smooth="yes"/>
      <point x="296.93333333333334" y="-240.57333333333332"/>
      <point x="250.41333333333333" y="-178.57333333333332"/>
      <point x="118.17333333333333" y="-144.8" type="curve"/>
      <point x="110.49333333333334" y="-190.93333333333334" type="line"/>
      <point x="327.38666666666666" y="51.88" type="line"/>
      <point x="273.81333333333333" y="51.88" type="line"/>
      <point x="40.61333333333333" y="-210.37333333333333" type="line"/>
      <point x="37.74666666666667" y="-219.6" type="line"/>
      <point x="171.49333333333334" y="-248.88"/>
      <point x="221.37333333333333" y="-292.4"/>
      <point x="221.37333333333333" y="-348.7733333333333" type="curve" smooth="yes"/>
      <point x="221.37333333333333" y="-424.41333333333336"/>
      <point x="163.85333333333332" y="-478.4266666666667"/>
      <point x="75.06666666666666" y="-478.4266666666667" type="curve" smooth="yes"/>
      <point x="5.053333333333331" y="-478.4266666666667"/>
      <point x="-0.9600000000000009" y="-416.05333333333334"/>
      <point x="-46.693333333333335" y="-416.05333333333334" type="curve" smooth="yes"/>
      <point x="-73.53333333333333" y="-416.05333333333334"/>
      <point x="-94.02666666666667" y="-437.7866666666667"/>
      <point x="-94.02666666666667" y="-464.7733333333333" type="curve" smooth="yes"/>
      <point x="-94.02666666666667" y="-498.8933333333333"/>
      <point x="-60.653333333333336" y="-530.0"/>
    </contour>
  </outline>
</glyph>
<glyph name="uni0306" format="2">
  <unicode hex="0306"/>
  <anchor x="130.0" y="852.0" name="_top"/>
  <anchor x="278.62666666666667" y="1340.0" name="top"/>
  <outline>
    <contour>
      <point x="198.09333333333333" y="1094.2666666666667" type="curve" smooth="yes"/>
      <point x="92.70666666666666" y="1094.2666666666667"/>
      <point x="52.48" y="1157.3066666666666"/>
      <point x="68.12" y="1340.0" type="curve"/>
      <point x="31.533333333333335" y="1340.0" type="line"/>
      <point x="-1.093333333333332" y="1070.3466666666666"/>
      <point x="46.77333333333333" y="999.0"/>
      <point x="181.37333333333333" y="999.0" type="curve" smooth="yes"/>
      <point x="316.3466666666667" y="999.0"/>
      <point x="394.82666666666665" y="1070.3466666666666"/>
      <point x="527.4666666666667" y="1340.0" type="curve"/>
      <point x="481.26666666666665" y="1340.0" type="line"/>
      <point x="384.4533333333333" y="1152.0266666666666"/>
      <point x="303.48" y="1094.2666666666667"/>
    </contour>
  </outline>
</glyph>
<glyph name="uni0311" format="2">
  <unicode hex="0311"/>
  <anchor x="130.0" y="852.0" name="_top"/>
  <anchor x="279.0" y="1340.0" name="top"/>
  <outline>
    <contour>
      <point x="259.9066666666667" y="1254.7333333333333" type="curve" smooth="yes"/>
      <point x="365.29333333333335" y="1254.7333333333333"/>
      <point x="405.52" y="1191.6933333333334"/>
      <point x="389.88" y="1009.0" type="curve"/>
      <point x="426.46666666666664" y="1009.0" type="line"/>
      <point x="459.0933333333333" y="1278.6533333333334"/>
      <point x="411.2266666666667" y="1350.0"/>
      <point x="276.62666666666667" y="1350.0" type="curve" smooth="yes"/>
      <point x="141.65333333333334" y="1350.0"/>
      <point x="63.17333333333333" y="1278.6533333333334"/>
      <point x="-69.46666666666667" y="1009.0" type="curve"/>
      <point x="-23.266666666666666" y="1009.0" type="line"/>
      <point x="73.54666666666667" y="1196.9733333333334"/>
      <point x="154.52" y="1254.7333333333333"/>
    </contour>
  </outline>
</glyph>
<glyph name="dotbelowcomb" format="2">
  <unicode hex="0323"/>
  <anchor x="-130.0" y="0.0" name="_bottom"/>
  <anchor x="-292.0" y="-530.0" name="bottom"/>
  <outline>
    <contour>
      <point x="-208.0" y="-348.81333333333333" type="curve" smooth="yes"/>
      <point x="-151.16" y="-348.81333333333333"/>
      <point x="-114.44" y="-305.3333333333333"/>
      <point x="-114.44" y="-255.0" type="curve" smooth="yes"/>
      <point x="-114.44" y="-204.04"/>
      <point x="-151.16" y="-160.56"/>
      <point x="-208.0" y="-160.56" type="curve" smooth="yes"/>
      <point x="-264.84" y="-160.56"/>
      <point x="-301.56" y="-204.04"/>
      <point x="-301.56" y="-255.0" type="curve" smooth="yes"/>
      <point x="-301.56" y="-305.3333333333333"/>
      <point x="-264.84" y="-348.81333333333333"/>
    </contour>
  </outline>
</glyph>
<glyph name="emdash" format="2">
  <advance width="1273.5466666666666"/>
  <unicode hex="2014"/>
  <outline>
    <contour>
      <point x="103.45333333333333" y="469.0933333333333" type="line"/>
      <point x="83.34666666666666" y="402.9066666666667" type="line"/>
      <point x="1175.3466666666666" y="402.9066666666667" type="line"/>
      <point x="1195.8266666666666" y="469.0933333333333" type="line"/>
    </contour>
  </outline>
</glyph>
<glyph name="quoteright" format="2">
  <advance width="404.73333333333335"/>
  <unicode hex="2019"/>
  <outline>
    <contour>
      <point x="244.54666666666668" y="951.3733333333333" type="curve"/>
      <point x="260.41333333333336" y="913.6666666666666" type="line"/>
      <point x="494.02666666666664" y="1027.4"/>
      <point x="564.3733333333333" y="1136.4933333333333"/>
      <point x="564.3733333333333" y="1253.0666666666666" type="curve" smooth="yes"/>
      <point x="564.3733333333333" y="1316.3866666666668"/>
      <point x="530.4133333333333" y="1350.0"/>
      <point x="481.18666666666667" y="1350.0" type="curve" smooth="yes"/>
      <point x="415.48" y="1350.0"/>
      <point x="374.1333333333333" y="1305.0266666666666"/>
      <point x="374.1333333333333" y="1252.5866666666666" type="curve" smooth="yes"/>
      <point x="374.1333333333333" y="1229.72"/>
      <point x="460.48" y="1226.7066666666667"/>
      <point x="460.48" y="1158.8666666666666" type="curve" smooth="yes"/>
      <point x="460.48" y="1096.88"/>
      <point x="403.36" y="1030.3733333333334"/>
    </contour>
  </outline>
</glyph>
<glyph name="quotesinglbase" format="2">
  <advance width="377.6933333333333"/>
  <unicode hex="201A"/>
  <outline>
    <contour>
      <point x="-122.25333333333333" y="-224.50666666666666" type="curve"/>
      <point x="-106.38666666666667" y="-262.2133333333333" type="line"/>
      <point x="127.22666666666666" y="-148.48"/>
      <point x="197.57333333333332" y="-39.38666666666667"/>
      <point x="197.57333333333332" y="77.18666666666667" type="curve" smooth="yes"/>
      <point x="197.57333333333332" y="140.50666666666666"/>
      <point x="163.61333333333334" y="174.12"/>
      <point x="114.38666666666666" y="174.12" type="curve" smooth="yes"/>
      <point x="48.68" y="174.12"/>
      <point x="7.333333333333332" y="129.14666666666665"/>
      <point x="7.333333333333332" y="76.70666666666666" type="curve" smooth="yes"/>
      <point x="7.333333333333332" y="53.84"/>
      <point x="93.68" y="50.82666666666667"/>
      <point x="93.68" y="-17.013333333333335" type="curve" smooth="yes"/>
      <point x="93.68" y="-79.0"/>
      <point x="36.56" y="-145.50666666666666"/>
    </contour>
  </outline>
</glyph>
<glyph name="guilsinglright" format="2">
  <advance width="568.52"/>
  <unicode hex="203A"/>
  <outline>
    <contour>
      <point x="369.8" y="395.2266666666667" type="line"/>
      <point x="404.74666666666667" y="507.4266666666667" type="line"/>
      <point x="-12.226666666666667" y="82.53333333333333" type="line"/>
      <point x="13.12" y="50.693333333333335" type="line"/>
      <point x="474.8933333333333" y="418.0133333333333" type="line"/>
      <point x="484.64" y="450.25333333333333" type="line"/>
      <point x="245.45333333333332" y="817.5733333333334" type="line"/>
      <point x="209.61333333333334" y="800.3333333333334" type="line"/>
    </contour>
  </outline>
</glyph>
<glyph name="fraction" format="2">
  <advance width="160.0"/>
  <unicode hex="2044"/>
  <outline>
    <contour>
      <point x="-532.0933333333334" y="0.0" type="line"/>
      <point x="-456.53333333333336" y="0.0" type="line"/>
      <point x="839.3466666666667" y="1340.0" type="line"/>
      <point x="763.7866666666666" y="1340.0" type="line"/>
    </contour>
  </outline>
</glyph>
<glyph name="uni27E9" format="2">
  <advance width="1000.0"/>
  <unicode hex="27E9"/>
  <outline>
    <contour>
      <point x="806.0266666666666" y="699.24" type="line"/>
      <point x="75.77333333333334" y="0.0" type="line"/>
      <point x="158.2" y="0.0" type="line"/>
      <point x="851.8266666666667" y="665.0" type="line"/>
      <point x="854.8266666666667" y="676.0" type="line"/>
      <point x="546.5866666666667" y="1340.0" type="line"/>
      <point x="484.7733333333333" y="1340.0" type="line"/>
      <point x="797.6533333333333" y="655.8666666666667" type="line"/>
    </contour>
  </outline>
</glyph>
<glyph name="f_f_l" format="2">
  <advance width="1393.72"/>
  <unicode hex="FB04"/>
  <outline>
    <contour>
      <point x="110.76" y="793.9333333333333" type="line"/>
      <point x="1051.2" y="793.9333333333333" type="line"/>
      <point x="1066.5466666666666" y="852.0" type="line"/>
      <point x="122.0" y="852.0" type="line"/>
    </contour>
    <contour>
      <point x="19.973333333333333" y="-400.7733333333333" type="line"/>
      <point x="44.373333333333335" y="-456.4"/>
      <point x="115.48" y="-500.0"/>
      <point x="223.57333333333332" y="-500.0" type="curve" smooth="yes"/>
      <point x="432.37333333333333" y="-500.0"/>
      <point x="608.1466666666666" y="-339.21333333333337"/>
      <point x="705.2533333333333" y="130.25333333333333" type="curve" smooth="yes"/>
      <point x="884.3199999999999" y="992.7066666666667" type="line" smooth="yes"/>
      <point x="942.9866666666667" y="1272.8666666666666"/>
      <point x="1062.08" y="1359.8266666666666"/>
      <point x="1200.88" y="1359.8266666666666" type="curve" smooth="yes"/>
      <point x="1292.1466666666668" y="1359.8266666666666"/>
      <point x="1333.16" y="1318.0"/>
      <point x="1342.6133333333332" y="1272.9333333333334" type="curve" smooth="yes"/>
      <point x="978.7066666666667" y="50.04" type="line" smooth="yes"/>
      <point x="963.5733333333333" y="-1.4933333333333332"/>
      <point x="976.2666666666667" y="-20.0"/>
      <point x="1037.3866666666668" y="-20.0" type="curve" smooth="yes"/>
      <point x="1114.48" y="-20.0"/>
      <point x="1215.8533333333332" y="28.12"/>
      <point x="1352.4666666666667" y="182.46666666666667" type="curve"/>
      <point x="1330.7333333333333" y="206.32" type="line"/>
      <point x="1221.6533333333334" y="102.61333333333333"/>
      <point x="1136.92" y="69.89333333333333"/>
      <point x="1073.8" y="67.89333333333333" type="curve"/>
      <point x="1476.9466666666667" y="1419.0" type="line"/>
      <point x="1457.7066666666667" y="1419.0" type="line"/>
      <point x="1370.9466666666667" y="1369.0533333333333" type="line"/>
      <point x="1429.5333333333333" y="1371.6666666666667" type="line"/>
      <point x="1376.04" y="1403.7733333333333"/>
      <point x="1326.96" y="1416.0133333333333"/>
      <point x="1268.2533333333333" y="1416.0133333333333" type="curve" smooth="yes"/>
      <point x="1038.8666666666666" y="1416.0133333333333"/>
      <point x="848.3466666666667" y="1274.64"/>
      <point x="771.6933333333334" y="902.8" type="curve" smooth="yes"/>
      <point x="587.28" y="6.613333333333333" type="line" smooth="yes"/>
      <point x="512.6266666666667" y="-355.09333333333336"/>
      <point x="401.0" y="-437.70666666666665"/>
      <point x="264.44" y="-437.70666666666665" type="curve" smooth="yes"/>
      <point x="187.89333333333332" y="-437.70666666666665"/>
      <point x="129.77333333333334" y="-399.4533333333333"/>
      <point x="92.4" y="-328.05333333333334" type="curve"/>
    </contour>
    <contour>
      <point x="264.46666666666664" y="119.05333333333333" type="curve" smooth="yes"/>
      <point x="445.02666666666664" y="988.2266666666667" type="line" smooth="yes"/>
      <point x="501.18666666666667" y="1255.7333333333333"/>
      <point x="624.6533333333333" y="1342.8133333333333"/>
      <point x="755.9866666666667" y="1342.8133333333333" type="curve" smooth="yes"/>
      <point x="854.24" y="1342.8133333333333"/>
      <point x="906.2133333333334" y="1306.3333333333333"/>
      <point x="943.96" y="1245.8533333333332" type="curve"/>
      <point x="1019.2533333333333" y="1321.0133333333333" type="line"/>
      <point x="979.7733333333333" y="1368.5066666666667"/>
      <point x="915.44" y="1399.0"/>
      <point x="821.84" y="1399.0" type="curve" smooth="yes"/>
      <point x="599.5733333333334" y="1399.0"/>
      <point x="406.5466666666667" y="1257.6266666666668"/>
      <point x="332.4" y="898.32" type="curve" smooth="yes"/>
      <point x="152.46666666666667" y="27.14666666666666" type="line" smooth="yes"/>
      <point x="70.46666666666667" y="-370.05333333333334"/>
      <point x="-23.693333333333335" y="-467.70666666666665"/>
      <point x="-141.33333333333334" y="-467.70666666666665" type="curve" smooth="yes"/>
      <point x="-176.58666666666667" y="-467.70666666666665"/>
      <point x="-209.08" y="-455.84000000000003"/>
      <point x="-239.96" y="-423.97333333333336" type="curve" smooth="yes"/>
      <point x="-270.84000000000003" y="-392.1066666666667"/>
      <point x="-287.5733333333333" y="-367.9866666666667"/>
      <point x="-304.17333333333335" y="-367.9866666666667" type="curve" smooth="yes"/>
      <point x="-337.8933333333333" y="-367.9866666666667"/>
      <point x="-367.50666666666666" y="-396.94666666666666"/>
      <point x="-367.50666666666666" y="-429.92" type="curve" smooth="yes"/>
      <point x="-367.50666666666666" y="-482.88"/>
      <point x="-312.64" y="-530.0"/>
      <point x="-202.28" y="-530.0" type="curve" smooth="yes"/>
      <point x="2.7866666666666617" y="-530.0"/>
      <point x="162.48" y="-374.06666666666666"/>
    </contour>
  </outline>
</glyph>
<glyph name="five.lf" format="2">
  <advance width="913.2666666666667"/>
  <outline>
    <contour>
      <point x="507.12" y="1249.8666666666666" type="line"/>
      <point x="1021.2933333333333" y="1249.8666666666666" type="line"/>
      <point x="1098.6" y="1378.0" type="line"/>
      <point x="850.6133333333333" y="1340.0" type="line"/>
      <point x="513.08" y="1340.0" type="line"/>
      <point x="255.12" y="809.5733333333334" type="line"/>
      <point x="606.2" y="735.44"/>
      <point x="721.0133333333333" y="619.7066666666667"/>
      <point x="721.0133333333333" y="453.6533333333333" type="curve" smooth="yes"/>
      <point x="721.0133333333333" y="224.41333333333333"/>
      <point x="558.0266666666666" y="34.06666666666666"/>
      <point x="297.50666666666666" y="34.06666666666666" type="curve" smooth="yes"/>
      <point x="132.93333333333334" y="34.06666666666666"/>
      <point x="118.74666666666667" y="158.62666666666667"/>
      <point x="36.946666666666665" y="158.62666666666667" type="curve" smooth="yes"/>
      <point x="-1.2666666666666675" y="158.62666666666667"/>
      <point x="-26.866666666666667" y="133.89333333333332"/>
      <point x="-26.866666666666667" y="97.68" type="curve" smooth="yes"/>
      <point x="-26.866666666666667" y="31.746666666666666"/>
      <point x="75.8" y="-20.0"/>
      <point x="240.16" y="-20.0" type="curve" smooth="yes"/>
      <point x="595.6266666666667" y="-20.0"/>
      <point x="814.7866666666666" y="218.98666666666668"/>
      <point x="814.7866666666666" y="489.1066666666667" type="curve" smooth="yes"/>
      <point x="814.7866666666666" y="668.24"/>
      <point x="688.4933333333333" y="811.9733333333334"/>
      <point x="336.50666666666666" y="895.6" type="curve"/>
      <point x="320.28" y="839.8" type="line"/>
      <point x="552.76" y="1291.4" type="line"/>
    </contour>
  </outline>
</glyph>
<glyph name="hookabovecomb.case" format="2">
  <anchor x="279.0" y="1340.0" name="_UCtop"/>
  <anchor x="402.58666666666664" y="1745.4933333333333" name="UCtop"/>
  <outline>
    <contour>
      <point x="255.29333333333332" y="1670.6533333333334" type="line"/>
      <point x="405.09333333333336" y="1666.1733333333334"/>
      <point x="443.24" y="1637.6666666666667"/>
      <point x="443.24" y="1598.4" type="curve" smooth="yes"/>
      <point x="443.24" y="1552.64"/>
      <point x="406.5733333333333" y="1515.8666666666666"/>
      <point x="277.81333333333333" y="1500.6266666666668" type="curve"/>
      <point x="276.70666666666665" y="1459.92" type="line"/>
      <point x="472.08" y="1484.0266666666666"/>
      <point x="520.6133333333333" y="1552.48"/>
      <point x="520.6133333333333" y="1631.2133333333334" type="curve" smooth="yes"/>
      <point x="520.6133333333333" y="1695.32"/>
      <point x="471.9866666666667" y="1749.5466666666666"/>
      <point x="291.46666666666664" y="1757.4" type="curve"/>
    </contour>
  </outline>
</glyph>
<glyph name="lira.lf" format="2">
  <advance width="1077.0266666666666"/>
  <outline>
    <contour>
      <point x="178.68" y="90.13333333333333" type="line"/>
      <point x="176.81333333333333" y="57.42666666666666" type="line"/>
      <point x="441.93333333333334" y="313.1066666666667"/>
      <point x="541.9066666666666" y="461.17333333333335"/>
      <point x="541.9066666666666" y="580.4533333333334" type="curve" smooth="yes"/>
      <point x="541.9066666666666" y="702.08"/>
      <point x="442.6533333333333" y="801.8133333333333"/>
      <point x="442.6533333333333" y="975.9866666666667" type="curve" smooth="yes"/>
      <point x="442.6533333333333" y="1150.7866666666666"/>
      <point x="554.3333333333334" y="1284.2133333333334"/>
      <point x="759.0133333333333" y="1284.2133333333334" type="curve" smooth="yes"/>
      <point x="948.1733333333333" y="1284.2133333333334"/>
      <point x="1038.3066666666666" y="1167.4133333333334"/>
      <point x="1056.6666666666667" y="946.12" type="curve"/>
      <point x="1092.3733333333332" y="946.12" type="line"/>
      <point x="1086.12" y="1218.88"/>
      <point x="980.12" y="1360.0"/>
      <point x="755.8666666666667" y="1360.0" type="curve" smooth="yes"/>
      <point x="491.1333333333333" y="1360.0"/>
      <point x="338.52" y="1180.9066666666668"/>
      <point x="338.52" y="952.2533333333333" type="curve" smooth="yes"/>
      <point x="338.52" y="778.2666666666667"/>
      <point x="452.4" y="672.96"/>
      <point x="452.4" y="548.3466666666667" type="curve" smooth="yes"/>
      <point x="452.4" y="438.62666666666667"/>
      <point x="393.94666666666666" y="328.4266666666667"/>
      <point x="77.32" y="19.106666666666666" type="curve"/>
      <point x="71.82666666666667" y="0.0" type="line"/>
      <point x="721.2266666666667" y="0.0" type="line"/>
      <point x="796.4" y="-19.0" type="line"/>
      <point x="811.4" y="-19.0" type="line"/>
      <point x="982.1333333333333" y="328.68" type="line"/>
      <point x="956.6533333333333" y="328.68" type="line"/>
      <point x="727.6266666666667" y="74.37333333333333" type="line"/>
      <point x="781.76" y="90.13333333333333" type="line"/>
    </contour>
    <contour>
      <point x="817.32" y="564.5866666666667" type="line"/>
      <point x="144.25333333333333" y="564.5866666666667" type="line"/>
      <point x="126.01333333333334" y="506.37333333333333" type="line"/>
      <point x="799.7066666666667" y="506.37333333333333" type="line"/>
    </contour>
    <contour>
      <point x="889.4266666666666" y="841.5066666666667" type="line"/>
      <point x="215.73333333333332" y="841.5066666666667" type="line"/>
      <point x="198.12" y="783.2933333333333" type="line"/>
      <point x="871.56" y="783.2933333333333" type="line"/>
    </contour>
  </outline>
</glyph>
<glyph name="numbersign.lf" format="2">
  <advance width="1129.8933333333334"/>
  <outline>
    <contour>
      <point x="885.0" y="1340.0" type="line"/>
      <point x="822.1733333333333" y="1340.0" type="line"/>
      <point x="129.54666666666668" y="0.0" type="line"/>
      <point x="192.62666666666667" y="0.0" type="line"/>
    </contour>
    <contour>
      <point x="1170.1866666666667" y="1340.0" type="line"/>
      <point x="1106.48" y="1340.0" type="line"/>
      <point x="414.1066666666667" y="0.0" type="line"/>
      <point x="477.18666666666667" y="0.0" type="line"/>
    </contour>
    <contour>
      <point x="1165.7866666666666" y="792.6666666666666" type="line"/>
      <point x="1184.0266666666666" y="850.88" type="line"/>
      <point x="280.4" y="850.88" type="line"/>
      <point x="262.7866666666667" y="792.6666666666666" type="line"/>
    </contour>
    <contour>
      <point x="1006.3733333333333" y="495.12" type="line"/>
      <point x="1023.9866666666667" y="553.3333333333334" type="line"/>
      <point x="120.36" y="553.3333333333334" type="line"/>
      <point x="102.12" y="495.12" type="line"/>
    </contour>
  </outline>
</glyph>
<glyph name="seven.lf" format="2">
  <advance width="889.6933333333334"/>
  <outline>
    <contour>
      <point x="361.25333333333333" y="1249.8666666666666" type="line"/>
      <point x="1040.4266666666667" y="1249.8666666666666" type="line"/>
      <point x="1041.9733333333334" y="1277.6533333333334" type="line"/>
      <point x="152.08" y="0.0" type="line"/>
      <point x="274.70666666666665" y="0.0" type="line"/>
      <point x="1126.3066666666666" y="1324.76" type="line"/>
      <point x="1131.0533333333333" y="1340.0" type="line"/>
      <point x="422.84" y="1340.0" type="line"/>
      <point x="348.25333333333333" y="1359.0" type="line"/>
      <point x="336.38666666666666" y="1359.0" type="line"/>
      <point x="208.74666666666667" y="1005.5333333333333" type="line"/>
      <point x="231.72" y="1001.1466666666666" type="line"/>
      <point x="424.74666666666667" y="1265.4933333333333" type="line"/>
    </contour>
  </outline>
</glyph>
<glyph name="uni0302_tildecomb" format="2">
  <anchor x="130.0" y="852.0" name="_top"/>
  <outline>
    <contour>
      <point x="245.44" y="1128.6266666666668" type="line"/>
      <point x="205.01333333333332" y="1128.6266666666668" type="line"/>
      <point x="353.3333333333333" y="967.0" type="line"/>
      <point x="398.5466666666667" y="967.0" type="line"/>
      <point x="276.3066666666667" y="1204.0" type="line"/>
      <point x="199.94666666666666" y="1204.0" type="line"/>
      <point x="-67.54666666666667" y="967.0" type="line"/>
      <point x="-6.719999999999999" y="967.0" type="line"/>
    </contour>
    <contour>
      <point x="531.7066666666667" y="1476.0" type="curve"/>
      <point x="491.62666666666667" y="1476.0" type="line"/>
      <point x="448.72" y="1389.92"/>
      <point x="419.3333333333333" y="1363.1466666666668"/>
      <point x="386.3333333333333" y="1363.1466666666668" type="curve" smooth="yes"/>
      <point x="334.2133333333333" y="1363.1466666666668"/>
      <point x="261.25333333333333" y="1482.3733333333332"/>
      <point x="197.62666666666667" y="1482.3733333333332" type="curve" smooth="yes"/>
      <point x="143.18666666666667" y="1482.3733333333332"/>
      <point x="102.05333333333334" y="1439.5466666666666"/>
      <point x="26.68" y="1275.0" type="curve"/>
      <point x="66.76" y="1275.0" type="line"/>
      <point x="110.04" y="1361.08"/>
      <point x="139.05333333333334" y="1387.8533333333332"/>
      <point x="172.05333333333334" y="1387.8533333333332" type="curve" smooth="yes"/>
      <point x="224.17333333333335" y="1387.8533333333332"/>
      <point x="297.88" y="1269.0"/>
      <point x="361.1333333333333" y="1269.0" type="curve" smooth="yes"/>
      <point x="415.5733333333333" y="1269.0"/>
      <point x="456.70666666666665" y="1311.4533333333334"/>
    </contour>
  </outline>
</glyph>
<glyph name="uni0304.case" format="2">
  <anchor x="279.0" y="1340.0" name="_UCtop"/>
  <anchor x="393.62666666666667" y="1716.0" name="UCtop"/>
  <outline>
    <contour>
      <point x="124.68" y="1563.5466666666666" type="line"/>
      <point x="570.2266666666667" y="1563.5466666666666" type="line"/>
      <point x="589.9466666666667" y="1629.08" type="line"/>
      <point x="145.02666666666667" y="1629.08" type="line"/>
    </contour>
  </outline>
</glyph>
<glyph name="uni20A6.1" format="2">
  <advance width="1100.0"/>
  <outline>
    <contour>
      <point x="1160.64" y="1279.4133333333334" type="line"/>
      <point x="1329.5333333333333" y="1312.4" type="line"/>
      <point x="1338.0266666666666" y="1340.0" type="line"/>
      <point x="961.9333333333333" y="1340.0" type="line"/>
      <point x="953.0666666666667" y="1312.4" type="line"/>
      <point x="1106.5733333333333" y="1279.4133333333334" type="line"/>
      <point x="741.0" y="83.67999999999999" type="line"/>
      <point x="783.8533333333334" y="111.93333333333332" type="line"/>
      <point x="593.76" y="1340.0" type="line"/>
      <point x="327.2266666666667" y="1340.0" type="line"/>
      <point x="319.73333333333335" y="1313.52" type="line"/>
      <point x="473.9066666666667" y="1268.68" type="line"/>
      <point x="104.62666666666667" y="60.586666666666666" type="line"/>
      <point x="-63.64" y="27.6" type="line"/>
      <point x="-72.13333333333334" y="0.0" type="line"/>
      <point x="303.96" y="0.0" type="line"/>
      <point x="312.2" y="27.6" type="line"/>
      <point x="159.32" y="60.586666666666666" type="line"/>
      <point x="530.4933333333333" y="1273.8666666666666" type="line"/>
      <point x="507.8666666666667" y="1279.2266666666667" type="line"/>
      <point x="711.7066666666667" y="-19.0" type="line"/>
      <point x="764.2533333333333" y="-19.0" type="line"/>
    </contour>
    <contour>
      <point x="906.7466666666667" y="532.5066666666667" type="line"/>
      <point x="1106.5066666666667" y="532.5066666666667" type="line"/>
      <point x="1124.12" y="590.72" type="line"/>
      <point x="923.6133333333333" y="590.72" type="line"/>
    </contour>
    <contour>
      <point x="295.2133333333333" y="590.72" type="line"/>
      <point x="85.90666666666667" y="590.72" type="line"/>
      <point x="67.66666666666666" y="532.5066666666667" type="line"/>
      <point x="278.3466666666667" y="532.5066666666667" type="line"/>
    </contour>
    <contour>
      <point x="987.8933333333333" y="809.4266666666666" type="line"/>
      <point x="1190.52" y="809.4266666666666" type="line"/>
      <point x="1208.76" y="867.64" type="line"/>
      <point x="1004.76" y="867.64" type="line"/>
    </contour>
    <contour>
      <point x="375.48" y="867.64" type="line"/>
      <point x="169.92" y="867.64" type="line"/>
      <point x="152.30666666666667" y="809.4266666666666" type="line"/>
      <point x="358.8666666666667" y="809.4266666666666" type="line"/>
    </contour>
  </outline>
</glyph>
<glyph name="uni20A6.lf.1" format="2">
  <advance width="1246.08"/>
  <outline>
    <contour>
      <point x="1233.68" y="1279.4133333333334" type="line"/>
      <point x="1402.5733333333333" y="1312.4" type="line"/>
      <point x="1411.0666666666666" y="1340.0" type="line"/>
      <point x="1034.9733333333334" y="1340.0" type="line"/>
      <point x="1026.1066666666666" y="1312.4" type="line"/>
      <point x="1179.6133333333332" y="1279.4133333333334" type="line"/>
      <point x="814.04" y="83.67999999999999" type="line"/>
      <point x="856.8933333333333" y="111.93333333333332" type="line"/>
      <point x="666.8" y="1340.0" type="line"/>
      <point x="400.26666666666665" y="1340.0" type="line"/>
      <point x="392.7733333333333" y="1313.52" type="line"/>
      <point x="546.9466666666667" y="1268.68" type="line"/>
      <point x="177.66666666666666" y="60.586666666666666" type="line"/>
      <point x="9.4" y="27.6" type="line"/>
      <point x="0.9066666666666681" y="0.0" type="line"/>
      <point x="377.0" y="0.0" type="line"/>
      <point x="385.24" y="27.6" type="line"/>
      <point x="232.36" y="60.586666666666666" type="line"/>
      <point x="603.5333333333333" y="1273.8666666666666" type="line"/>
      <point x="580.9066666666666" y="1279.2266666666667" type="line"/>
      <point x="784.7466666666667" y="-19.0" type="line"/>
      <point x="837.2933333333333" y="-19.0" type="line"/>
    </contour>
    <contour>
      <point x="977.9066666666666" y="532.5066666666667" type="line"/>
      <point x="1179.5466666666666" y="532.5066666666667" type="line"/>
      <point x="1197.16" y="590.72" type="line"/>
      <point x="996.52" y="590.72" type="line"/>
    </contour>
    <contour>
      <point x="365.72" y="590.72" type="line"/>
      <point x="158.94666666666666" y="590.72" type="line"/>
      <point x="140.70666666666668" y="532.5066666666667" type="line"/>
      <point x="347.73333333333335" y="532.5066666666667" type="line"/>
    </contour>
    <contour>
      <point x="1063.6666666666667" y="809.4266666666666" type="line"/>
      <point x="1263.56" y="809.4266666666666" type="line"/>
      <point x="1281.8" y="867.64" type="line"/>
      <point x="1081.6533333333334" y="867.64" type="line"/>
    </contour>
    <contour>
      <point x="450.73333333333335" y="867.64" type="line"/>
      <point x="242.96" y="867.64" type="line"/>
      <point x="225.34666666666666" y="809.4266666666666" type="line"/>
      <point x="433.12" y="809.4266666666666" type="line"/>
    </contour>
  </outline>
</glyph>
<glyph name="uni20A9.lf.1" format="2">
  <advance width="1333.7333333333333"/>
  <outline>
    <contour>
      <point x="935.8666666666667" y="1234.0133333333333" type="line"/>
      <point x="900.88" y="1225.0266666666666" type="line"/>
      <point x="804.0266666666666" y="-19.373333333333335" type="line"/>
      <point x="850.1866666666666" y="-19.373333333333335" type="line"/>
      <point x="1402.9333333333334" y="1282.4266666666667" type="line"/>
      <point x="1514.72" y="1312.4" type="line"/>
      <point x="1523.2133333333334" y="1340.0" type="line"/>
      <point x="1250.2266666666667" y="1340.0" type="line"/>
      <point x="1241.9866666666667" y="1312.4" type="line"/>
      <point x="1343.2533333333333" y="1282.4266666666667" type="line"/>
      <point x="868.6266666666667" y="150.50666666666666" type="line"/>
      <point x="903.4266666666666" y="160.58666666666667" type="line"/>
      <point x="996.52" y="1360.0" type="line"/>
      <point x="950.36" y="1360.0" type="line"/>
      <point x="307.04" y="180.50666666666666" type="line"/>
      <point x="332.62666666666667" y="180.50666666666666" type="line"/>
      <point x="537.0666666666667" y="1280.9333333333334" type="line"/>
      <point x="666.2933333333333" y="1312.4" type="line"/>
      <point x="674.7866666666666" y="1340.0" type="line"/>
      <point x="360.62666666666667" y="1340.0" type="line"/>
      <point x="352.1333333333333" y="1312.4" type="line"/>
      <point x="447.05333333333334" y="1279.8133333333333" type="line"/>
      <point x="208.0" y="-19.373333333333335" type="line"/>
      <point x="252.90666666666667" y="-19.373333333333335" type="line"/>
    </contour>
    <contour>
      <point x="1073.0666666666666" y="575.7466666666667" type="line"/>
      <point x="1274.8666666666666" y="575.7466666666667" type="line"/>
      <point x="1292.48" y="633.96" type="line"/>
      <point x="1097.4266666666667" y="633.96" type="line"/>
    </contour>
    <contour>
      <point x="376.82666666666665" y="633.96" type="line"/>
      <point x="159.46666666666667" y="633.96" type="line"/>
      <point x="141.85333333333332" y="575.7466666666667" type="line"/>
      <point x="367.82666666666665" y="575.7466666666667" type="line"/>
    </contour>
    <contour>
      <point x="1189.5866666666666" y="852.6666666666666" type="line"/>
      <point x="1359.2533333333333" y="852.6666666666666" type="line"/>
      <point x="1377.4933333333333" y="910.88" type="line"/>
      <point x="1214.32" y="910.88" type="line"/>
    </contour>
    <contour>
      <point x="419.9866666666667" y="910.88" type="line"/>
      <point x="244.10666666666665" y="910.88" type="line"/>
      <point x="225.86666666666667" y="852.6666666666666" type="line"/>
      <point x="411.36" y="852.6666666666666" type="line"/>
    </contour>
  </outline>
</glyph>
<glyph name="uni20AD.lf" format="2">
  <advance width="1272.32"/>
  <outline>
    <contour>
      <point x="680.7066666666667" y="725.0933333333334" type="line"/>
      <point x="665.4533333333334" y="688.8933333333333" type="line"/>
      <point x="1254.96" y="1279.6933333333334" type="line"/>
      <point x="1422.3466666666666" y="1312.4" type="line"/>
      <point x="1430.84" y="1340.0" type="line"/>
      <point x="1049.3733333333332" y="1340.0" type="line"/>
      <point x="1040.88" y="1312.4" type="line"/>
      <point x="1187.2933333333333" y="1280.0666666666666" type="line"/>
      <point x="617.88" y="706.12" type="line"/>
      <point x="591.6933333333334" y="706.12" type="line"/>
      <point x="864.56" y="0.0" type="line"/>
      <point x="1087.7066666666667" y="0.0" type="line"/>
      <point x="1096.2" y="28.226666666666667" type="line"/>
      <point x="942.8133333333334" y="63.56" type="line"/>
    </contour>
    <contour>
      <point x="999.3733333333333" y="735.48" type="line"/>
      <point x="203.13333333333333" y="735.48" type="line"/>
      <point x="185.52" y="677.2666666666667" type="line"/>
      <point x="981.76" y="677.2666666666667" type="line"/>
    </contour>
    <contour>
      <point x="651.44" y="1276.3066666666666" type="line"/>
      <point x="827.96" y="1312.4" type="line"/>
      <point x="836.4533333333334" y="1340.0" type="line"/>
      <point x="407.64" y="1340.0" type="line"/>
      <point x="399.7733333333333" y="1312.4" type="line"/>
      <point x="553.44" y="1276.3066666666666" type="line"/>
      <point x="182.90666666666667" y="64.94666666666666" type="line"/>
      <point x="5.76" y="27.6" type="line"/>
      <point x="-2.7333333333333325" y="0.0" type="line"/>
      <point x="426.08" y="0.0" type="line"/>
      <point x="433.94666666666666" y="27.6" type="line"/>
      <point x="280.28" y="63.69333333333333" type="line"/>
    </contour>
  </outline>
</glyph>
<glyph name="uni20B1.lf" format="2">
  <advance width="1240.4266666666667"/>
  <outline>
    <contour>
      <point x="1259.7733333333333" y="819.96" type="line"/>
      <point x="238.12" y="819.96" type="line"/>
      <point x="219.88" y="761.7466666666667" type="line"/>
      <point x="1242.16" y="761.7466666666667" type="line"/>
    </contour>
    <contour>
      <point x="1344.7866666666666" y="1096.88" type="line"/>
      <point x="322.50666666666666" y="1096.88" type="line"/>
      <point x="304.8933333333333" y="1038.6666666666667" type="line"/>
      <point x="1327.1733333333334" y="1038.6666666666667" type="line"/>
    </contour>
    <contour>
      <point x="570.9333333333333" y="1276.3066666666666" type="line"/>
      <point x="200.4" y="64.94666666666666" type="line"/>
      <point x="23.253333333333334" y="27.6" type="line"/>
      <point x="14.76" y="0.0" type="line"/>
      <point x="443.5733333333333" y="0.0" type="line"/>
      <point x="451.44" y="27.6" type="line"/>
      <point x="297.7733333333333" y="63.69333333333333" type="line"/>
      <point x="688.04" y="1340.0" type="line"/>
      <point x="424.38666666666666" y="1340.0" type="line"/>
      <point x="416.52" y="1312.4" type="line"/>
    </contour>
    <contour>
      <point x="617.5866666666667" y="586.08" type="curve" smooth="yes"/>
      <point x="410.85333333333335" y="586.08" type="line"/>
      <point x="394.85333333333335" y="528.8933333333333" type="line"/>
      <point x="614.48" y="528.8933333333333" type="line" smooth="yes"/>
      <point x="978.8933333333333" y="528.8933333333333"/>
      <point x="1141.7866666666666" y="775.2933333333333"/>
      <point x="1141.7866666666666" y="1059.9866666666667" type="curve" smooth="yes"/>
      <point x="1141.7866666666666" y="1220.76"/>
      <point x="1060.1466666666668" y="1340.0"/>
      <point x="820.8933333333333" y="1340.0" type="curve" smooth="yes"/>
      <point x="648.36" y="1340.0" type="line"/>
      <point x="622.64" y="1282.8133333333333" type="line"/>
      <point x="786.4933333333333" y="1282.8133333333333" type="line" smooth="yes"/>
      <point x="974.76" y="1282.8133333333333"/>
      <point x="1047.0266666666666" y="1210.0"/>
      <point x="1047.0266666666666" y="1066.3466666666666" type="curve" smooth="yes"/>
      <point x="1047.0266666666666" y="787.7466666666667"/>
      <point x="906.76" y="586.08"/>
    </contour>
  </outline>
</glyph>
